<svg width="500" height="195" viewBox="0 0 500 195" fill="none" xmlns="http://www.w3.org/2000/svg">
<path d="M184.342 123.324C179.485 137.872 175.172 146.961 171.4 150.616C171.844 157.755 172.411 163.509 173.052 167.857C169.872 169.734 165.927 170.672 161.194 170.672C158.483 170.672 156.19 170.129 154.391 169.017C152.566 167.906 151.704 166.473 151.753 164.72C151.753 159.582 151.876 154.914 152.147 150.691C151.038 149.653 150.2 148.344 149.608 146.788L135.311 109.863C135.508 109.22 135.951 108.381 136.666 107.319C137.381 106.281 138.145 105.441 139.008 104.775C141.399 102.897 144.456 101.959 148.154 101.959C151.013 101.959 153.158 103.021 154.563 105.17C156.116 107.566 157.275 110.357 158.014 113.493C158.754 116.655 159.345 119.248 159.765 121.348C160.184 123.422 160.751 126.263 161.465 129.82C162.18 133.401 162.871 136.612 163.511 139.477L170.217 103.515C172.041 102.206 175.024 101.564 179.165 101.564C182.863 101.564 185.229 102.403 186.265 104.108C187.053 105.343 187.423 107.319 187.423 110.011C187.448 112.728 186.412 117.149 184.342 123.324Z" fill="#2559DE"/>
<path d="M223.044 142.441C223.044 151.604 221.023 158.594 217.005 163.435C212.987 168.276 207.958 170.697 201.918 170.697C197.703 170.697 193.906 169.215 190.529 166.226C188.705 164.67 187.251 162.324 186.141 159.162C185.032 156.001 184.49 152.271 184.49 147.9C184.49 141.33 185.722 136.316 188.187 132.833C190.653 129.35 193.315 127.276 196.174 126.559C197.21 123.373 199.379 121.125 202.682 119.841C204.161 119.322 205.838 119.051 207.637 119.051C217.917 119.051 223.044 126.831 223.044 142.441ZM198.442 144.195C198.442 154.074 200.193 159.014 203.693 159.014C206.799 159.014 208.352 154.371 208.352 145.084C208.352 140.539 207.613 137.328 206.158 135.476C204.704 133.623 202.682 132.709 200.069 132.709C198.985 134.759 198.442 138.588 198.442 144.195Z" fill="#2559DE"/>
<path d="M252.428 120.063C254.425 119.125 256.372 118.656 258.221 118.656C260.07 118.656 261.697 119.495 263.078 121.2C264.483 122.879 265.173 124.806 265.173 126.954V159.805L267.318 164.769C267.046 165.214 266.701 165.782 266.258 166.424C265.814 167.066 264.803 167.955 263.25 169.067C261.697 170.178 260.046 170.722 258.295 170.722C254.351 170.722 251.837 168.548 250.801 164.201C250.012 166.029 248.829 167.56 247.202 168.82C245.575 170.079 243.628 170.722 241.36 170.722C237.465 170.722 234.31 169.462 231.869 166.967C229.429 164.473 228.221 161.262 228.221 157.359V129.968L226.076 123.25C226.988 122.089 228.418 121.027 230.415 120.088C232.387 119.15 234.31 118.68 236.208 118.68C238.081 118.68 239.708 119.52 241.064 121.224C242.42 122.904 243.11 124.83 243.11 126.979V150.666C243.11 153.457 243.554 155.433 244.417 156.618C245.279 157.804 247.252 158.397 250.308 158.471V129.968L248.065 123.25C248.952 122.064 250.407 121.002 252.428 120.063Z" fill="#2559DE"/>
<path d="M297.54 121.175C298.181 122.805 298.501 124.509 298.501 126.288C298.501 128.066 298.452 129.375 298.353 130.19C298.255 131.005 297.86 131.87 297.146 132.833C296.431 133.772 295.494 134.241 294.335 134.241C293.177 134.241 291.476 134.167 289.282 134.043V148.369C289.282 154.741 292.043 158.965 297.54 161.04C297.54 163.435 296.702 165.658 295.05 167.659C293.399 169.684 291.155 170.672 288.296 170.672C284.154 170.672 280.802 169.141 278.287 166.103C275.748 163.04 274.491 159.088 274.491 154.223V132.981C272.815 132.537 271.286 131.968 269.931 131.326L269.832 130.165C269.832 125.744 271.36 122.78 274.393 121.298C274.121 116.828 273.579 113.271 272.741 110.678L272.346 109.319C272.593 108.998 272.987 108.578 273.456 108.06C273.949 107.541 274.984 106.849 276.611 106.009C278.238 105.17 279.914 104.75 281.665 104.75C286.718 104.75 289.257 108.801 289.257 116.927V120.928C291.353 121.101 294.113 121.175 297.54 121.175Z" fill="#2559DE"/>
<path d="M317.384 159.187C317.384 162.373 317.778 164.744 318.543 166.301C318.148 167.338 317.064 168.326 315.289 169.264C313.514 170.203 311.517 170.672 309.348 170.672C307.178 170.672 305.478 170.005 304.294 168.672C303.086 167.338 302.495 165.535 302.495 163.262V122.163C302.495 116.778 301.977 112.283 300.942 108.726L300.35 106.874C300.597 106.553 300.991 106.133 301.459 105.614C301.952 105.096 302.988 104.404 304.615 103.515C306.242 102.626 307.918 102.206 309.668 102.206C314.796 102.206 317.359 106.256 317.359 114.383V125.794C318.198 123.916 319.603 122.311 321.55 121.027C323.498 119.718 326.111 119.075 329.389 119.075C332.668 119.075 335.478 120.36 337.795 122.929C340.137 125.497 341.296 129.029 341.296 133.5V159.805L343.44 164.769C343.169 165.214 342.824 165.782 342.38 166.424C341.937 167.066 340.926 167.955 339.373 169.067C337.82 170.178 336.168 170.722 334.418 170.722C329.093 170.722 326.431 166.893 326.431 159.212V140.416C326.431 136.834 325.79 134.438 324.484 133.203C323.177 131.968 320.811 131.351 317.384 131.351V159.187Z" fill="#2559DE"/>
<path d="M378.346 170.993C372.06 170.993 366.711 169.758 362.249 167.264C357.787 164.769 354.361 161.287 351.97 156.791C349.579 152.296 348.371 146.986 348.371 140.86C348.371 134.784 349.579 129.499 351.97 125.003C354.361 120.508 357.787 117.025 362.249 114.531C366.711 112.036 372.085 110.801 378.346 110.801C382.192 110.801 385.89 111.419 389.415 112.629C392.94 113.839 395.824 115.494 398.092 117.593L394.123 127.77C391.633 125.843 389.144 124.41 386.654 123.497C384.139 122.583 381.526 122.138 378.766 122.138C373.194 122.138 369.004 123.744 366.169 126.979C363.334 130.215 361.904 134.834 361.904 140.836C361.904 146.837 363.309 151.481 366.169 154.741C369.004 158.002 373.194 159.632 378.766 159.632C381.526 159.632 384.139 159.187 386.654 158.273C389.168 157.359 391.658 155.951 394.123 154L398.092 164.176C395.824 166.226 392.94 167.857 389.415 169.092C385.89 170.376 382.192 170.993 378.346 170.993Z" fill="#F3BA14"/>
<path d="M416.334 170.993C413.302 170.993 410.64 170.425 408.322 169.264C406.005 168.104 404.181 166.523 402.825 164.547C401.469 162.571 400.804 160.323 400.804 157.853C400.804 154.939 401.568 152.592 403.121 150.814C404.674 149.06 407.164 147.801 410.64 147.06C414.115 146.319 418.7 145.948 424.444 145.948H427.427V144.54C427.427 142.12 426.885 140.391 425.775 139.378C424.666 138.366 422.793 137.847 420.155 137.847C417.961 137.847 415.619 138.193 413.179 138.884C410.738 139.576 408.298 140.613 405.857 141.996L402.48 133.648C403.91 132.709 405.66 131.845 407.731 131.079C409.801 130.314 411.946 129.721 414.214 129.301C416.482 128.881 418.627 128.683 420.648 128.683C426.934 128.683 431.593 130.116 434.699 132.956C437.78 135.797 439.333 140.193 439.333 146.146V170.154H427.698V164.028C426.86 166.177 425.48 167.881 423.532 169.166C421.511 170.351 419.144 170.993 416.334 170.993ZM419.144 162.645C421.461 162.645 423.409 161.855 425.011 160.249C426.613 158.644 427.402 156.569 427.402 154.05V152.395H424.518C420.278 152.395 417.271 152.765 415.52 153.506C413.746 154.247 412.883 155.532 412.883 157.359C412.883 158.915 413.425 160.175 414.485 161.163C415.545 162.151 417.098 162.645 419.144 162.645Z" fill="#F3BA14"/>
<path d="M462.506 170.993C457.28 170.993 453.459 169.635 451.018 166.893C448.602 164.152 447.395 160.101 447.395 154.692V111.74H459.868V154.198C459.868 158.619 461.815 160.817 465.735 160.817C466.351 160.817 466.943 160.793 467.51 160.743C468.077 160.694 468.644 160.57 469.211 160.422L469.038 170.104C466.943 170.697 464.749 170.993 462.506 170.993Z" fill="#F3BA14"/>
<path d="M488.759 170.993C483.533 170.993 479.712 169.635 477.272 166.893C474.856 164.152 473.648 160.101 473.648 154.692V111.74H486.121V154.198C486.121 158.619 488.069 160.817 491.988 160.817C492.605 160.817 493.196 160.793 493.763 160.743C494.33 160.694 494.897 160.57 495.464 160.422L495.292 170.104C493.196 170.697 491.027 170.993 488.759 170.993Z" fill="#F3BA14"/>
<path d="M10.8217 3.9025C17.872 9.87973 24.6511 16.1781 31.8492 21.933C39.6636 28.1819 47.6506 32.8254 56.2785 37.8147C85.9586 54.9066 127.619 81.1867 115.565 121.792C115.934 120.533 112.656 115.766 112.015 114.531C110.733 112.036 109.377 109.591 107.947 107.17C99.9111 93.3881 89.9767 80.6927 78.44 69.6521C66.1883 57.9446 51.7181 49.3492 38.5543 38.8273C26.8204 29.4416 17.2064 17.413 10.7231 3.8284C10.7478 3.8531 10.7971 3.8778 10.8217 3.9025Z" fill="#F3448A"/>
<path d="M103.56 62.6622C103.56 62.6622 120.076 81.2361 121.062 87.7073C121.062 87.7073 160.011 85.5832 192.328 17.3142C192.328 17.3142 158.014 64.9098 103.56 62.6622Z" fill="#F3BA14"/>
<path d="M27.3135 49.9914C27.3135 49.9914 129.246 81.8041 115.22 193.593C115.22 193.593 99.714 105.268 27.3135 49.9914Z" fill="#2559DE"/>
<path d="M106.049 52.1897C115.389 52.1897 122.96 44.6037 122.96 35.2459C122.96 25.8882 115.389 18.3022 106.049 18.3022C96.7099 18.3022 89.1387 25.8882 89.1387 35.2459C89.1387 44.6037 96.7099 52.1897 106.049 52.1897Z" fill="#2559DE"/>
</svg>
