<svg width="200" height="200" viewBox="0 0 200 200" fill="none" xmlns="http://www.w3.org/2000/svg">
<path d="M5.75006 1.65742C13.0741 7.86112 20.1204 14.3889 27.6297 20.3796C35.7593 26.8611 44.0556 31.6945 53.0371 36.8519C83.9075 54.5833 127.232 81.8704 114.685 124.028C115.074 122.713 111.657 117.778 111 116.5C109.657 113.917 108.25 111.37 106.778 108.852C98.4167 94.537 88.0741 81.3611 76.0834 69.9167C63.3427 57.7685 48.2964 48.8519 34.6019 37.9074C22.4075 28.1667 12.3982 15.6759 5.65747 1.58334C5.68525 1.61112 5.72229 1.62964 5.75006 1.65742Z" fill="#F1448A"/>
<path d="M102.185 62.6482C102.185 62.6482 119.352 81.9167 120.389 88.6389C120.389 88.6389 160.88 86.4352 194.491 15.5926C194.5 15.5833 158.815 64.9722 102.185 62.6482Z" fill="#F3BA14"/>
<path d="M22.9075 49.5C22.9075 49.5 128.917 82.5093 114.324 198.537C114.324 198.537 98.1852 106.861 22.9075 49.5Z" fill="#2559DE"/>
<path d="M104.769 51.7871C114.48 51.7871 122.352 43.9147 122.352 34.2037C122.352 24.4927 114.48 16.6204 104.769 16.6204C95.0576 16.6204 87.1853 24.4927 87.1853 34.2037C87.1853 43.9147 95.0576 51.7871 104.769 51.7871Z" fill="#2559DE"/>
</svg>
